<svg width="600" height="100" version="1.1" viewBox="0 0 158.75 26.458" xmlns="http://www.w3.org/2000/svg">
 <g id="logo" fill="#5ea800">
  <g id="solawi" transform="matrix(.31544 0 0 .31323 -26.169 -126.76)" style="shape-inside:url(#rect10246);white-space:pre" aria-label="Solidarische Landwirtschaft">
   <path d="m83.605 482.86q0.66406 0.23437 1.3477 0.54687 0.70312 0.3125 1.4453 0.60547 0.74219 0.27344 1.543 0.46875 0.82031 0.19531 1.7383 0.19531 1.0742 0 2.168-0.2539 1.0938-0.25391 2.1289-0.74219 1.0547-0.50781 2.0117-1.2109 0.95703-0.72265 1.7578-1.6602 0.87891-0.9961 1.4648-1.7969 0.58594-0.82031 0.9375-1.4453 0.37109-0.64453 0.52734-1.0938 0.15625-0.46875 0.15625-0.80078 0-0.48828-0.33203-0.83985-0.33203-0.37109-0.89844-0.60546-0.54688-0.23438-1.25-0.33204-0.70312-0.11718-1.4648-0.11718-0.44922 0-1.0547 0.0391-0.60547 0.0195-1.2305 0.0586-0.625 0.0195-1.2109 0.0391-0.58594 0.0195-1.0156 0.0195-0.64453 0-1.3477-0.13672-0.68359-0.15625-1.3477-0.48828-0.66406-0.33203-1.2305-0.89844-0.56641-0.56641-0.9375-1.4062-0.11719-0.27344-0.21484-0.64453-0.09766-0.3711-0.09766-0.80078 0-0.46875 0.05859-0.87891 0.07813-0.42969 0.17578-0.82031 0.27344-0.97656 0.89844-1.9727 0.64453-1.0156 1.5234-1.9726 0.89844-0.95704 1.9336-1.8555 1.0547-0.89844 2.1484-1.6797 1.1133-0.80078 2.168-1.4258 1.0742-0.64453 1.9922-1.0938 1.2891-0.625 2.6172-0.89844 1.3477-0.29297 2.6562-0.29297 0.78125 0 1.4844 0.21485 0.70312 0.19531 1.2305 0.58593 0.54687 0.39063 0.85937 0.97657 0.3125 0.5664 0.3125 1.3086 0 0.42969-0.0977 0.72266-0.0977 0.29296-0.25391 0.48828-0.15625 0.17578-0.35156 0.2539-0.17578 0.0781-0.3711 0.0781-0.52734 0-0.97656-0.11719-0.42969-0.11719-0.83984-0.25391-0.41016-0.15625-0.82031-0.27343-0.41016-0.13672-0.89844-0.13672-1.4453 0-2.9492 0.58594-1.4844 0.5664-2.9102 1.4648-1.4062 0.87891-2.6758 1.9727-1.25 1.0938-2.2461 2.1289-0.52734 0.54688-0.78125 1.0938-0.23438 0.54688-0.23438 1.0352 0 0.72265 0.625 1.1328t1.5234 0.41016q0.52734 0 1.1914-0.0195 0.66406-0.0195 1.3477-0.0391 0.70312-0.0391 1.3477-0.0586 0.66406-0.0391 1.1719-0.0391 1.2109 0 2.3242 0.35156 1.1133 0.33203 1.9727 0.99609 0.85937 0.66407 1.3672 1.6602 0.52734 0.97656 0.52734 2.2461 0 0.78125-0.23437 1.582-0.23438 0.80079-0.64454 1.6211-0.41015 0.80078-0.9375 1.6016-0.52734 0.78125-1.1133 1.543-1.0547 1.3672-2.3633 2.5781-1.2891 1.2109-2.7539 2.1094t-3.1055 1.4258q-1.6211 0.52734-3.3398 0.52734-0.74219 0-1.5234-0.13671-0.78125-0.13672-1.543-0.41016-0.76172-0.25391-1.4453-0.64453-0.66406-0.41016-1.1719-0.91797-0.50781-0.50781-0.82031-1.1133-0.29297-0.625-0.29297-1.3477 0-0.35156 0.09766-0.66406 0.11719-0.33203 0.54688-0.33203z"/>
   <path d="m108.1 479.89q0.29297-1.1914 0.89843-2.5195 0.625-1.3477 1.6211-2.7148 0.99609-1.3672 2.3828-2.6758 1.4062-1.3086 3.2422-2.4414 0.29297-0.17579 0.89844-0.3711 0.60546-0.21484 1.25-0.2539 0.76171-0.82032 2.0508-0.82032 1.5234 0 2.5586 0.78125 1.0547 0.76172 1.7383 2.0898 0.21485 0.42968 0.39063 0.83984 0.19531 0.41016 0.3125 0.87891 0.13672 0.44922 0.21484 0.97656 0.0781 0.52734 0.0781 1.1914 0 1.543-0.48829 3.1445-0.48828 1.6016-1.3867 3.125-0.89844 1.5234-2.1875 2.9297-1.2695 1.3867-2.832 2.5-1.0547 0.76172-2.3438 1.1719-1.2695 0.42969-2.8516 0.42969-1.5039 0-2.6172-0.41016-1.0938-0.39062-1.8359-1.1328-0.72266-0.74219-1.0938-1.7774-0.35157-1.0352-0.35157-2.3047 0-1.2305 0.35157-2.6367zm3.2422 0.2539q-0.11718 0.44922-0.17578 0.85938-0.0391 0.39062-0.0391 0.76172 0 0.64453 0.15625 1.2109 0.17578 0.54687 0.54688 0.95703 0.37109 0.39062 0.91796 0.625 0.56641 0.21484 1.3672 0.21484 1.4844 0 2.7539-0.74219 1.2891-0.76172 2.2852-1.8945 0.9961-1.1328 1.6602-2.4219 0.68359-1.3086 0.95703-2.4024 0.17578-0.68359 0.29297-1.2891 0.13672-0.60547 0.13672-1.1133t-0.19531-0.9375q-0.17578-0.44922-0.46875-0.99609-0.17578-0.33204-0.35157-0.6836-0.17578-0.37109-0.3125-0.72265-0.15625 0.27343-0.33203 0.48828-0.17578 0.19531-0.52734 0.37109-0.35156 0.15625-0.95703 0.29297t-1.582 0.23437q-0.64453 0.21485-1.3086 0.66407-0.66406 0.44922-1.3086 1.0547-0.625 0.60547-1.2109 1.3086-0.5664 0.70312-1.0352 1.4453-0.44922 0.72266-0.80079 1.4258-0.33203 0.70313-0.46875 1.2891z"/>
   <path d="m134.86 462.04q0.0586-0.66407 0.15625-1.4453 0.0977-0.78125 0.3125-1.4453 0.21484-0.66406 0.5664-1.0938 0.3711-0.44922 0.9375-0.44922 0.3125 0 0.6836 0.11719 0.39062 0.11719 0.72265 0.33203 0.35157 0.19531 0.58594 0.48828 0.23438 0.29297 0.23438 0.64453 0 0.15625-0.0586 0.3711-0.0586 0.19531-0.0977 0.39062l-4.8828 19.57q-0.29296 1.1719-0.48828 2.2461-0.19531 1.0547-0.29297 1.7383v0.46875q0 0.58594-0.0781 1.2891-0.0781 0.6836-0.29297 1.2891-0.21484 0.58594-0.60547 0.97657-0.37109 0.41015-0.97656 0.41015-0.52734 0-0.91797-0.23437-0.39062-0.21485-0.64453-0.56641t-0.37109-0.74219q-0.11719-0.41015-0.11719-0.76171 0-0.3125 0.0586-0.76172 0.0586-0.46875 0.13672-0.95703 0.0977-0.50782 0.19531-0.9961 0.0977-0.50781 0.19532-0.8789z"/>
   <path d="m139.09 483.79q0.29297-1.1328 0.70312-2.6367 0.41016-1.5039 0.85938-3.1836 0.46875-1.6797 0.9375-3.4375 0.46875-1.7578 0.87891-3.418 0.0195-0.0781 0.13671-0.25391 0.11719-0.19531 0.33204-0.37109 0.21484-0.19532 0.54687-0.33203 0.33203-0.13672 0.78125-0.13672 0.33203 0 0.64453 0.0781 0.3125 0.0586 0.54688 0.19531 0.2539 0.13672 0.39062 0.3711 0.15625 0.21484 0.15625 0.50781 0 0.0586 0 0.13672 0 0.0586-0.0195 0.11719l-0.5469 2.0703q-0.91797 3.4766-1.875 6.9727-0.9375 3.4961-1.8359 7.0117-0.0391 0.11719-0.11719 0.29297-0.0781 0.17578-0.21484 0.35157-0.13672 0.17578-0.33203 0.29296-0.19532 0.11719-0.46875 0.11719-0.50782 0-0.89844-0.21484-0.39063-0.19531-0.66406-0.50781-0.27344-0.3125-0.41016-0.6836-0.13672-0.37109-0.13672-0.70312 0-0.0977 0-0.17578 0-0.0781 0.0391-0.17579zm5.0977-20.215q0.0977-0.41015 0.35156-0.99609 0.2539-0.58594 0.89844-1.0547 0.3125-0.17578 0.76171-0.3125 0.44922-0.15625 0.64454-0.15625 0.19531 0 0.39062 0.13672 0.21484 0.13672 0.37109 0.29297 0.19532 0.19531 0.3711 0.42969 0.48828 0.0391 0.625 0.35156 0.15625 0.3125 0.15625 0.74219 0 0.3125-0.0586 0.5664-0.0586 0.25391-0.0977 0.41016-0.11719 0.41016-0.44922 0.76172-0.33203 0.33203-0.76172 0.58594-0.42969 0.23437-0.89844 0.37109t-0.82031 0.13672q-0.44922 0-0.70312-0.15625-0.23438-0.15625-0.60547-0.66406-0.21485-0.29297-0.25391-0.44922-0.0195-0.17578-0.0195-0.29297 0-0.21484 0.0195-0.37109 0.0391-0.17579 0.0781-0.33204z"/>
   <path d="m149.04 480.67q0.2539-1.0547 0.66406-2.1094 0.42969-1.0547 1.0547-2.0898t1.4844-2.0117q0.85938-0.99609 2.0117-1.8945 0.78125-0.625 1.6406-1.1719 0.87891-0.5664 1.7774-0.97656 0.89844-0.41015 1.7969-0.64453 0.91797-0.25391 1.7969-0.25391 0.64453 0 1.1328 0.11719 0.50781 0.0977 0.95703 0.29297 0.19531-0.68359 1.0352-3.6719 0.85937-2.9883 2.0898-8.3203 0.21485-0.52734 0.60547-0.8789 0.39063-0.35157 0.9375-0.35157 0.39063 0 0.76172 0.0781 0.37109 0.0586 0.66406 0.27344 0.29297 0.19531 0.46875 0.54687t0.17578 0.91797l-3.9258 15.684q-0.17578 0.66407-0.33203 1.7969-0.15625 1.1133-0.29297 2.3633t-0.21484 2.4805q-0.0781 1.2109-0.0781 2.0898 0 1.0938-0.2539 2.168-0.11719 0.46875-0.25391 0.80078-0.11719 0.3125-0.33203 0.52735-0.21484 0.19531-0.54688 0.29297-0.3125 0.0781-0.80078 0.0781-0.5664 0-0.8789-0.11719-0.3125-0.11718-0.46875-0.3125-0.15625-0.21484-0.19532-0.46875-0.0195-0.27343-0.0391-0.5664 0-0.3125-0.0391-0.625-0.0195-0.33203-0.15625-0.625-0.23438 0.15625-0.64453 0.41015-0.41016 0.25391-0.83985 0.52735-0.41015 0.2539-0.78125 0.48828-0.37109 0.21484-0.54687 0.3125-0.44922 0.2539-1.0156 0.54687-0.5664 0.27344-1.2305 0.52735-0.64454 0.23437-1.3672 0.39062-0.70313 0.15625-1.4258 0.15625-0.87891 0-1.7188-0.29297-0.82032-0.29297-1.4844-0.89843-0.64453-0.60547-1.0352-1.5234-0.39063-0.9375-0.39063-2.1875 0-0.44922 0.0391-0.87891 0.0586-0.44922 0.19532-0.99609zm3.3789-0.15625q-0.15625 0.58594-0.15625 1.1328 0 0.56641 0.0977 1.0742 0.0977 0.48828 0.35156 0.85937 0.27344 0.3711 0.70313 0.60547 0.44921 0.21485 1.1523 0.21485 0.39062 0 0.83984-0.13672t0.87891-0.33203q0.44922-0.21485 0.82031-0.42969 0.39063-0.23438 0.66406-0.41016 0.74219-0.48828 1.3672-0.95703 0.64453-0.46875 1.1524-1.0156 0.50781-0.54688 0.8789-1.2109 0.39063-0.68359 0.625-1.5625 0.19531-0.78125 0.33203-1.4258 0.15625-0.64453 0.27344-1.25 0.11719-0.625 0.21484-1.2695 0.0977-0.64453 0.19532-1.4258-0.0977-0.11719-0.27344-0.21485-0.15625-0.11719-0.48828-0.11719-0.78125 0-1.7188 0.27344-0.9375 0.25391-1.9336 0.74219-0.97656 0.48828-1.9336 1.1914-0.9375 0.70312-1.7578 1.582-0.80078 0.85937-1.4062 1.8945-0.60547 1.0352-0.87891 2.1875z"/>
   <path d="m180.58 486.53q0-0.5664 0.13672-1.3476 0.13672-0.80078 0.13672-1.9727-0.64453 0.46875-1.4258 1.1133t-1.6211 1.2305q-0.83985 0.58594-1.6797 0.99609-0.82031 0.39063-1.543 0.39063-0.58594 0-1.1133-0.17578t-0.89844-0.46875q-1.0352-0.82031-1.5039-1.6406-0.44922-0.82031-0.44922-1.9141 0-0.48828 0.0781-1.0156 0.0977-0.52735 0.27344-1.2109 0.74219-3.0859 2.5391-5.7031 1.8164-2.6367 4.4922-4.4922 1.0352-0.72266 2.0703-0.91797 1.0352-0.21485 2.0508-0.21485 0.44922 0 0.9961 0.0586 0.5664 0.0586 1.0156 0.11718 0.44922-0.0976 0.72266-0.13671 0.29297-0.0391 0.60547-0.0391 0.58593 0 0.97656 0.15625 0.39062 0.15625 0.625 0.42969 0.23437 0.25391 0.33203 0.60547 0.11719 0.33203 0.11719 0.70312 0 0.50782-0.15625 0.97657-0.15625 0.44922-0.3125 0.91797l-2.5781 10.293q-0.0781 0.83985-0.13672 1.543-0.0586 0.70313-0.23437 1.3086-0.0586 0.17578-0.15625 0.44922-0.0781 0.2539-0.27344 0.50781-0.19531 0.23437-0.48828 0.41015-0.29297 0.17579-0.76172 0.17579-0.60547 0-0.97656-0.0781-0.35156-0.0781-0.54688-0.21484-0.19531-0.15625-0.2539-0.35157-0.0586-0.21484-0.0586-0.48828zm-6.4844-5.8984q-0.0781 0.27343-0.17578 0.78125-0.0781 0.50781-0.0781 1.0156 0 0.52734 0.15625 0.95703 0.15625 0.41016 0.6836 0.41016 0.82031 0 1.5234-0.35156 0.72266-0.3711 1.3477-0.87891 0.83984-0.68359 1.6992-1.5234 0.87891-0.85937 1.6406-1.7969 0.78125-0.9375 1.3672-1.9141 0.60547-0.99609 0.87891-1.9726 0.15625-0.56641 0.2539-1.3086 0.11719-0.74218 0.11719-1.3281 0-0.25391-0.11719-0.48828-0.11718-0.25391-0.44921-0.25391-0.95704 0-1.9336 0.3711-0.95703 0.37109-1.8555 0.99609-0.89843 0.625-1.7188 1.4844-0.80078 0.83985-1.4648 1.8164-0.66406 0.95703-1.1523 1.9922-0.46875 1.0156-0.72266 1.9922z"/>
   <path d="m190.87 485.36q0.25391-1.3672 0.58594-3.0078 0.33203-1.6406 0.68359-3.3203 0.35157-1.6797 0.6836-3.3008 0.33203-1.6211 0.5664-2.9688-0.0195-0.19531-0.0195-0.33203 0-0.15625 0-0.33203 0-0.60547 0.0781-1.2109t0.21484-1.1133q0.21485-0.74219 0.46875-0.99609 0.27344-0.27344 0.85938-0.27344 0.5664 0 0.89843 0.23437 0.35157 0.21485 0.54688 0.58594 0.19531 0.3711 0.25391 0.85938 0.0586 0.46875 0.0586 0.97656 0 0.27344-0.0195 0.60547t-0.0195 0.52734q0.54687-0.5664 1.1523-1.1523 0.625-0.60547 1.3086-1.0742 0.70313-0.48828 1.4648-0.80078 0.78125-0.3125 1.6211-0.3125 0.33203 0 0.64453 0.0586 0.33203 0.0586 0.66407 0.15625 0.39062 0.0977 0.80078 0.27344 0.42968 0.15625 0.82031 0.44922 0.64453 0.48828 1.0742 1.2305 0.44922 0.72265 0.44922 1.4844 0 0.29297-0.11719 0.64453-0.11719 0.33203-0.33203 0.625-0.19531 0.27344-0.46875 0.46875-0.27344 0.17578-0.60547 0.17578t-0.82031-0.15625q-0.46875-0.17578-0.78125-0.44921-0.13672-0.11719-0.29297-0.33204-0.13672-0.21484-0.27344-0.42968-0.11719-0.21485-0.23437-0.39063-0.0977-0.19531-0.15625-0.2539-0.0977-0.0195-0.21485-0.0195-0.11719-0.0195-0.21484-0.0195-0.9961 0-1.8945 0.50782-0.89844 0.50781-1.6797 1.25-0.78125 0.72265-1.4453 1.5625-0.64453 0.82031-1.1328 1.4844-0.39062 1.582-0.8789 3.3789-0.46875 1.7773-0.9375 3.7305v0.48828q0 0.58593-0.0391 1.1914t-0.23438 1.0742q-0.21484 0.29297-0.625 0.48828-0.39062 0.21485-0.91797 0.21485-0.82031 0-1.2305-0.52735-0.41015-0.54687-0.41015-1.2695 0-0.33203 0.0977-0.68359z"/>
   <path d="m207.47 483.79q0.29296-1.1328 0.70312-2.6367t0.85938-3.1836q0.46875-1.6797 0.9375-3.4375 0.46875-1.7578 0.8789-3.418 0.0195-0.0781 0.13672-0.25391 0.11719-0.19531 0.33203-0.37109 0.21485-0.19532 0.54688-0.33203 0.33203-0.13672 0.78125-0.13672 0.33203 0 0.64453 0.0781 0.3125 0.0586 0.54687 0.19531 0.25391 0.13672 0.39063 0.3711 0.15625 0.21484 0.15625 0.50781 0 0.0586 0 0.13672 0 0.0586-0.0195 0.11719l-0.54691 2.0703q-0.91797 3.4766-1.875 6.9727-0.9375 3.4961-1.8359 7.0117-0.0391 0.11719-0.11718 0.29297-0.0781 0.17578-0.21485 0.35157-0.13672 0.17578-0.33203 0.29296-0.19531 0.11719-0.46875 0.11719-0.50781 0-0.89844-0.21484-0.39062-0.19531-0.66406-0.50781t-0.41015-0.6836q-0.13672-0.37109-0.13672-0.70312 0-0.0977 0-0.17578 0-0.0781 0.0391-0.17579zm5.0976-20.215q0.0977-0.41015 0.35156-0.99609 0.25391-0.58594 0.89844-1.0547 0.3125-0.17578 0.76172-0.3125 0.44922-0.15625 0.64453-0.15625t0.39063 0.13672q0.21484 0.13672 0.37109 0.29297 0.19531 0.19531 0.37109 0.42969 0.48829 0.0391 0.625 0.35156 0.15625 0.3125 0.15625 0.74219 0 0.3125-0.0586 0.5664-0.0586 0.25391-0.0977 0.41016-0.11718 0.41016-0.44921 0.76172-0.33204 0.33203-0.76172 0.58594-0.42969 0.23437-0.89844 0.37109t-0.82031 0.13672q-0.44922 0-0.70313-0.15625-0.23437-0.15625-0.60547-0.66406-0.21484-0.29297-0.2539-0.44922-0.0195-0.17578-0.0195-0.29297 0-0.21484 0.0195-0.37109 0.0391-0.17579 0.0781-0.33204z"/>
   <path d="m218.1 483.91q0.15625 0 0.27343 0.0391 0.13672 0.0391 0.29297 0.0976 0.15625 0.0391 0.35156 0.0781 0.19532 0.0391 0.50782 0.0391 0.91797 0 2.0312-0.19531 1.1328-0.19531 2.1289-0.50781 0.9961-0.3125 1.6992-0.70313 0.72266-0.41015 0.82031-0.83984 0.0586-0.23438 0.0586-0.41016 0-0.33203-0.33203-0.625-0.3125-0.3125-0.80078-0.58594-0.48829-0.27343-1.0547-0.50781-0.56641-0.23437-1.0547-0.42969l-0.66406-0.27343q-0.50781-0.19532-0.9961-0.46875-0.48828-0.29297-0.91796-0.66407-0.41016-0.37109-0.74219-0.85937-0.3125-0.50781-0.46875-1.1523-0.0781-0.27344-0.13672-0.54688-0.0391-0.27344-0.0391-0.58594 0-0.50781 0.33203-1.1523 0.35156-0.66406 0.91797-1.3086 0.58593-0.64454 1.3086-1.2305 0.74219-0.58594 1.543-0.97657 0.58594-0.41015 1.1328-0.74218 0.54688-0.33203 1.0938-0.56641 0.56641-0.23437 1.1328-0.37109 0.58594-0.13672 1.2305-0.13672 0.58594 0 1.2695 0.0586 0.6836 0.0586 1.25 0.27344 0.56641 0.21484 0.9375 0.64453 0.39063 0.41016 0.39063 1.1133 0 0.21485-0.0586 0.56641t-0.19532 0.70312q-0.13672 0.35157-0.33203 0.60547-0.19531 0.25391-0.46875 0.25391-0.44922 0-0.74219-0.17578-0.29296-0.17578-0.52734-0.3711-0.23437-0.21484-0.48828-0.39062t-0.625-0.17578q-0.44922 0-1.0547 0.17578-0.58594 0.15625-1.2109 0.44922-0.625 0.27343-1.2305 0.64453-0.58594 0.37109-1.0742 0.76172-0.46875 0.39062-0.76172 0.78125-0.29297 0.37109-0.29297 0.68359 0 0.33203 0.21484 0.54688 0.21485 0.21484 0.54688 0.37109 0.42969 0.23437 0.97656 0.46875 0.56641 0.23437 1.1328 0.46875 0.56641 0.23437 1.0938 0.46875 0.54688 0.23437 0.9375 0.42969 0.52735 0.27343 0.9375 0.54687 0.42969 0.25391 0.72266 0.56641t0.44922 0.70312q0.15625 0.39063 0.15625 0.91797 0 0.25391-0.0391 0.50781-0.0391 0.25391-0.11719 0.58594-0.0586 0.29297-0.21485 0.6836-0.13671 0.39062-0.3125 0.78125-0.15625 0.37109-0.33203 0.68359-0.17578 0.29297-0.29297 0.39062-0.76171 0.70313-1.7969 1.3281-1.0352 0.60547-2.168 1.0742-1.1133 0.44922-2.2461 0.72265-1.1133 0.27344-2.0508 0.27344-0.46875 0-1.0352-0.17578-0.56641-0.19531-1.0547-0.48828-0.46875-0.3125-0.80078-0.70313-0.3125-0.39062-0.3125-0.78125 0-0.19531 0.11719-0.42968 0.11719-0.25391 0.29297-0.44922 0.17578-0.21485 0.37109-0.35156 0.21484-0.15625 0.39063-0.15625z"/>
   <path d="m234.23 479.73q0.37109-1.5039 1.0938-3.1445 0.74219-1.6406 1.7773-3.1641 1.0352-1.543 2.3438-2.832 1.3281-1.3086 2.8906-2.1289 0.50781-0.27344 1.1133-0.41016t1.2305-0.13672q0.64453 0 1.1914 0.11719 0.56641 0.11719 0.95703 0.39062 0.41016 0.27344 0.64454 0.70313 0.23437 0.42969 0.23437 1.0547 0 0.46875-0.13672 0.95703-0.13672 0.46875-0.41015 0.85937-0.27344 0.3711-0.6836 0.60547-0.41015 0.23438-0.95703 0.23438-0.42969 0-0.80078-0.15625-0.35156-0.15625-0.68359-0.35157-0.17579-0.11718-0.33204-0.19531-0.15625-0.0976-0.37109-0.17578-0.78125 0.35156-1.4844 0.9375-0.6836 0.56641-1.2891 1.2695-0.58593 0.70313-1.0938 1.5039-0.48828 0.80078-0.89843 1.6016-0.39063 0.80078-0.6836 1.582-0.27344 0.76172-0.44922 1.4062-0.13672 0.46875-0.2539 1.0742-0.0977 0.58594-0.0977 1.1523 0 0.39063 0.0586 0.74219 0.0781 0.35156 0.25391 0.625 0.17578 0.27344 0.46875 0.42969t0.72266 0.15625q0.68359 0 1.3476-0.17578 0.6836-0.17578 1.3281-0.44922t1.25-0.625q0.625-0.37109 1.2109-0.74219 0.37109-0.23437 0.74218-0.48828 0.3711-0.25391 0.70313-0.44922t0.60547-0.3125q0.29297-0.13672 0.50781-0.13672 0.29297 0 0.54687 0.15625 0.25391 0.13672 0.25391 0.48828 0 0.25391-0.11719 0.56641-0.27343 0.76172-0.74218 1.3672t-1.0547 1.0938q-0.56641 0.46875-1.2305 0.83984-0.64453 0.3711-1.2891 0.6836-1.2109 0.64453-2.4609 0.97656-1.2305 0.3125-2.0703 0.3125-0.27344 0-0.64453-0.0586-0.3711-0.0586-0.64454-0.17578-1.582-0.68359-2.3047-1.8359-0.72266-1.1524-0.72266-2.7344 0-0.68359 0.0977-1.4258 0.11718-0.76172 0.33203-1.582z"/>
   <path d="m264.64 488.48q-1.2109 0-1.6602-0.52735-0.44922-0.52734-0.44922-1.4453 0-0.48828 0.0977-1.0547 0.0976-0.5664 0.2539-1.1719 0.27344-1.0352 0.60547-2.0508 0.35156-1.0352 0.68359-2.0703 0.35157-1.0547 0.66407-2.0898 0.33203-1.0547 0.58593-2.1094 0.0195-0.0977 0.0195-0.25391 0-0.27344-0.13672-0.42969t-0.41016-0.15625q-0.42969 0-0.9375 0.17578-0.48828 0.17579-0.82031 0.39063-1.3086 0.87891-2.3047 1.7383-0.97656 0.85938-1.7969 1.7969-0.82032 0.9375-1.5625 2.0117-0.72266 1.0547-1.5234 2.3242-0.6836 1.2695-1.0156 2.168-0.33203 0.87891-0.625 1.4258-0.27343 0.54688-0.625 0.78125-0.35156 0.25391-1.0547 0.25391-0.78125 0-1.1133-0.44922-0.3125-0.44922-0.3125-1.1719 0-0.56641 0.17579-1.2695l6.4453-25.82q0.0586-0.23437 0.19531-0.50781 0.13672-0.27344 0.37109-0.50781 0.23438-0.23438 0.54688-0.39063 0.33203-0.15625 0.74219-0.15625 0.3125 0 0.66406 0.0391 0.35156 0.0195 0.625 0.11719 0.29297 0.0781 0.46875 0.27344 0.19531 0.19531 0.19531 0.50781 0 0.0781-0.0391 0.33203-0.0391 0.23438-0.11719 0.54688-1.0547 4.2383-2.2656 8.8281-1.1914 4.5898-2.4219 9.2774 1.1914-1.4648 2.4805-2.6758 1.2891-1.2305 2.6367-2.1094 1.3672-0.87891 2.8125-1.3672 1.4648-0.50781 3.0273-0.50781 0.9961 0 1.543 0.64453 0.54688 0.625 0.54688 1.6016 0 0.44922-0.11719 0.87891-0.23438 0.89844-0.52734 1.7773-0.29297 0.85938-0.60547 1.7383-0.3125 0.8789-0.625 1.7969-0.3125 0.89844-0.54688 1.8555-0.3125 1.2305-0.42969 2.3438-0.11718 1.0938-0.15625 1.7578-0.0391 0.56641-0.17578 1.0938-0.13672 0.52735-0.41015 0.91797-0.25391 0.41016-0.66407 0.64453-0.39062 0.25391-0.9375 0.25391z"/>
   <path d="m272.88 479.83q0-0.83984 0.44922-1.4258 0.44922-0.58593 1.1914-0.78125 0.21484-0.42968 0.66406-1.1523 0.44922-0.74219 1.1133-1.6016 0.66406-0.85938 1.5039-1.7188 0.85937-0.87891 1.875-1.582 1.0352-0.72266 2.207-1.1719 1.1914-0.44922 2.5195-0.44922 1.1328 0 1.9727 0.27344 0.83984 0.27344 1.3867 0.76172 0.54688 0.48828 0.82032 1.1719 0.27343 0.66407 0.27343 1.4453 0 0.66406-0.17578 1.2695-0.27343 1.0938-1.0156 1.9141t-1.7578 1.4453q-0.9961 0.60547-2.1875 1.0156-1.1719 0.41015-2.3633 0.68359-1.1719 0.27344-2.2656 0.42969-1.0938 0.13672-1.8945 0.21484-0.17578 0.35156-0.3125 0.89844-0.11719 0.52734-0.11719 1.0352 0 1.1328 0.89844 1.7578t2.4805 0.625q0.91797 0 1.7578-0.19531 0.83984-0.21485 1.582-0.52735 0.76172-0.33203 1.4258-0.70312 0.66406-0.39063 1.2109-0.76172 0.70312-0.46875 1.3281-0.78125 0.64454-0.33203 1.1328-0.33203t0.625 0.2539q0.13672 0.23438 0.13672 0.50782 0 0.15625-0.0195 0.3125 0 0.13671-0.0195 0.23437-0.0976 0.50781-0.39062 1.0156-0.29297 0.50781-0.74219 0.8789-2.0312 1.6016-4.1797 2.2852-2.1289 0.68359-4.5508 0.68359-0.46875 0-1.1133-0.0586-0.625-0.0586-1.3086-0.23438-0.6836-0.17578-1.3477-0.50781t-1.1914-0.87891q-0.50781-0.54687-0.83984-1.3476-0.3125-0.80078-0.3125-1.9336 0-0.91796 0.25391-2.0508-0.25391-0.0391-0.48828-0.2539-0.21485-0.23438-0.21485-0.66407zm12.227-5.4102q0.0391-0.0977 0.0391-0.17578 0-0.0781 0-0.17578 0-0.52735-0.39063-0.78125-0.39062-0.27344-0.9375-0.27344-0.85937 0-1.6992 0.44922-0.82031 0.44922-1.5625 1.1328-0.72265 0.66406-1.2891 1.4453-0.56641 0.76172-0.87891 1.3867 1.4062-0.11719 2.5781-0.37109 1.1719-0.27344 2.0312-0.66407 0.87891-0.41015 1.4062-0.89843 0.54687-0.50782 0.70312-1.0742z"/>
   <path d="m314.97 477.29q0.8789-2.6953 1.6797-5.1758t1.4062-4.5898q0.625-2.1094 0.97657-3.7305 0.37109-1.6211 0.41015-2.5781 0.23438-0.91797 0.82031-1.4648 0.60547-0.54688 1.3867-0.54688 0.46875 0 0.80078 0.21485 0.33204 0.21484 0.52735 0.5664 0.21484 0.35157 0.3125 0.80079 0.0976 0.42968 0.0976 0.8789 0 0.33203-0.0391 0.60547t-0.0976 0.52734q-0.44922 1.7969-1.0742 3.7109t-1.2891 3.8867q-0.64453 1.9531-1.2891 3.9258-0.64453 1.9727-1.1523 3.8672l-0.35156 1.3281q-0.27344 1.0156-0.46875 1.9336-0.19532 0.91797-0.19532 1.4844 0 0.3125 0.11719 0.50782 0.11719 0.17578 0.44922 0.17578 0.80078 0 1.875-0.25391 1.0742-0.27344 2.2266-0.64453 1.1524-0.39063 2.2852-0.83984 1.1523-0.46875 2.1094-0.87891 0.50782-0.21484 0.85938-0.37109 0.37109-0.15625 0.89844-0.3711 0.54687-0.23437 1.4453-0.60547 0.89844-0.37109 2.4805-1.0352 0.27343-0.0977 0.46875-0.15625 0.21484-0.0781 0.39062-0.0781 0.3125 0 0.52735 0.11719 0.23437 0.11719 0.35156 0.3125 0.13672 0.19531 0.19531 0.44922 0.0586 0.2539 0.0586 0.50781 0 0.42969-0.0781 0.76172-0.0586 0.3125-0.13672 0.52734-0.23437 0.3711-0.60547 0.6836-0.37109 0.29297-0.78125 0.52734-0.41015 0.21484-0.80078 0.37109-0.39062 0.15625-0.64453 0.23438-0.3125 0.11719-0.83984 0.3125-0.50782 0.19531-1.1133 0.42969-0.60546 0.23437-1.25 0.48828-0.64453 0.23437-1.2109 0.44922-0.56641 0.21484-1.0156 0.39062-0.42969 0.15625-0.60547 0.21485-0.83984 0.3125-1.875 0.70312-1.0156 0.39063-2.0312 0.74219-1.0156 0.35156-1.9336 0.60547-0.89844 0.23437-1.5039 0.23437-0.74218 0-1.1719-0.11719-0.41016-0.11718-0.74219-0.3125-0.33203-0.21484-0.68359-0.50781-0.33203-0.29297-0.89844-0.64453-0.50781-0.3125-0.72266-0.85937-0.21484-0.54688-0.21484-1.1719 0-0.3125 0.0391-0.72266 0.0586-0.41015 0.13672-0.85937 0.0781-0.44922 0.17578-0.87891 0.0977-0.42968 0.21485-0.76172z"/>
   <path d="m346.05 486.53q0-0.5664 0.13672-1.3476 0.13672-0.80078 0.13672-1.9727-0.64453 0.46875-1.4258 1.1133t-1.6211 1.2305q-0.83985 0.58594-1.6797 0.99609-0.82031 0.39063-1.543 0.39063-0.58594 0-1.1133-0.17578t-0.89844-0.46875q-1.0352-0.82031-1.5039-1.6406-0.44922-0.82031-0.44922-1.9141 0-0.48828 0.0781-1.0156 0.0977-0.52735 0.27344-1.2109 0.74219-3.0859 2.5391-5.7031 1.8164-2.6367 4.4922-4.4922 1.0352-0.72266 2.0703-0.91797 1.0352-0.21485 2.0508-0.21485 0.44922 0 0.9961 0.0586 0.5664 0.0586 1.0156 0.11718 0.44922-0.0976 0.72266-0.13671 0.29297-0.0391 0.60547-0.0391 0.58593 0 0.97656 0.15625 0.39062 0.15625 0.625 0.42969 0.23437 0.25391 0.33203 0.60547 0.11719 0.33203 0.11719 0.70312 0 0.50782-0.15625 0.97657-0.15625 0.44922-0.3125 0.91797l-2.5781 10.293q-0.0781 0.83985-0.13672 1.543-0.0586 0.70313-0.23437 1.3086-0.0586 0.17578-0.15625 0.44922-0.0781 0.2539-0.27344 0.50781-0.19531 0.23437-0.48828 0.41015-0.29297 0.17579-0.76172 0.17579-0.60547 0-0.97656-0.0781-0.35156-0.0781-0.54688-0.21484-0.19531-0.15625-0.2539-0.35157-0.0586-0.21484-0.0586-0.48828zm-6.4844-5.8984q-0.0781 0.27343-0.17578 0.78125-0.0781 0.50781-0.0781 1.0156 0 0.52734 0.15625 0.95703 0.15625 0.41016 0.6836 0.41016 0.82031 0 1.5234-0.35156 0.72266-0.3711 1.3477-0.87891 0.83984-0.68359 1.6992-1.5234 0.87891-0.85937 1.6406-1.7969 0.78125-0.9375 1.3672-1.9141 0.60547-0.99609 0.87891-1.9726 0.15625-0.56641 0.2539-1.3086 0.11719-0.74218 0.11719-1.3281 0-0.25391-0.11719-0.48828-0.11718-0.25391-0.44921-0.25391-0.95704 0-1.9336 0.3711-0.95703 0.37109-1.8555 0.99609-0.89843 0.625-1.7188 1.4844-0.80078 0.83985-1.4648 1.8164-0.66406 0.95703-1.1523 1.9922-0.46875 1.0156-0.72266 1.9922z"/>
   <path d="m369.82 471.33q-0.6836 0-1.4648 0.33203-0.78125 0.3125-1.6211 0.85938-0.83985 0.54687-1.7188 1.25-0.85938 0.68359-1.6992 1.4258-0.42969 0.37109-0.82031 0.68359-0.39063 0.29297-0.78125 0.44922-0.27344 0.44922-0.58594 1.1914-0.29297 0.72265-0.58594 1.6016-0.29297 0.85937-0.5664 1.7773-0.25391 0.89844-0.42969 1.6797-0.0977 0.41016-0.15625 0.80078-0.0586 0.39063-0.13672 0.83985-0.0781 0.42968-0.19531 0.9375-0.0977 0.50781-0.25391 1.1328-0.0977 0.37109-0.3125 0.60547-0.21484 0.21484-0.44922 0.33203-0.23437 0.11719-0.44922 0.13672-0.21484 0.0391-0.33203 0.0391-0.74219 0-1.2109-0.35156-0.46875-0.35157-0.46875-1.3672 0-0.27344 0.0195-0.56641 0.0195-0.3125 0.11718-0.68359 0.42969-1.8555 0.82032-3.3398 0.41015-1.4844 0.82031-2.7539 0.41015-1.2695 0.82031-2.3828 0.42969-1.1328 0.85938-2.2656 0.44921-1.1523 0.91796-2.3633 0.48829-1.2305 1.0352-2.7148 0.11719-0.33203 0.60547-0.54688 0.50781-0.23437 1.0742-0.23437 0.74219 0 1.2109 0.33203 0.48828 0.33203 0.48828 0.95703 0 0.0586-0.0391 0.21484-0.0391 0.15625-0.11718 0.33203l-0.85938 2.0312q0.82031-0.64453 1.6992-1.2891 0.89844-0.64453 1.8359-1.1523 0.9375-0.52735 1.875-0.83985 0.95703-0.33203 1.875-0.33203 1.875 0 2.9297 1.0156 1.0547 0.99609 1.0547 3.1055 0 1.2109-0.42968 2.7539-0.41016 1.543-1.0547 3.3203-0.625 1.7578-1.3672 3.7109-0.72266 1.9336-1.3477 3.9453-0.17578 0.54687-0.37109 0.91796-0.17578 0.3711-0.42969 0.58594-0.2539 0.23438-0.60547 0.33203-0.33203 0.0977-0.82031 0.0977-0.76172 0-1.0547-0.29297-0.29296-0.27344-0.29296-0.89844 0-0.54687 0.15625-1.3281 0.17578-0.80078 0.46875-1.7383 0.3125-0.95703 0.70312-2.0312 0.41016-1.0742 0.87891-2.1875 0.37109-0.89844 0.72265-1.7969 0.3711-0.89844 0.64453-1.7383 0.29297-0.83984 0.46875-1.6016 0.17579-0.76172 0.17579-1.4062 0-0.60547-0.27344-1.0547-0.25391-0.46875-0.97656-0.46875z"/>
   <path d="m377.82 480.67q0.2539-1.0547 0.66406-2.1094 0.42969-1.0547 1.0547-2.0898t1.4844-2.0117q0.85938-0.99609 2.0117-1.8945 0.78125-0.625 1.6406-1.1719 0.8789-0.5664 1.7773-0.97656 0.89844-0.41015 1.7969-0.64453 0.91796-0.25391 1.7969-0.25391 0.64453 0 1.1328 0.11719 0.50782 0.0977 0.95703 0.29297 0.19532-0.68359 1.0352-3.6719 0.85938-2.9883 2.0898-8.3203 0.21485-0.52734 0.60547-0.8789 0.39063-0.35157 0.9375-0.35157 0.39063 0 0.76172 0.0781 0.3711 0.0586 0.66406 0.27344 0.29297 0.19531 0.46875 0.54687 0.17579 0.35156 0.17579 0.91797l-3.9258 15.684q-0.17578 0.66407-0.33203 1.7969-0.15625 1.1133-0.29297 2.3633-0.13671 1.25-0.21484 2.4805-0.0781 1.2109-0.0781 2.0898 0 1.0938-0.25391 2.168-0.11719 0.46875-0.25391 0.80078-0.11718 0.3125-0.33203 0.52735-0.21484 0.19531-0.54687 0.29297-0.3125 0.0781-0.80078 0.0781-0.56641 0-0.87891-0.11719-0.3125-0.11718-0.46875-0.3125-0.15625-0.21484-0.19531-0.46875-0.0195-0.27343-0.0391-0.5664 0-0.3125-0.0391-0.625-0.0195-0.33203-0.15625-0.625-0.23437 0.15625-0.64453 0.41015-0.41016 0.25391-0.83984 0.52735-0.41016 0.2539-0.78125 0.48828-0.3711 0.21484-0.54688 0.3125-0.44922 0.2539-1.0156 0.54687-0.56641 0.27344-1.2305 0.52735-0.64453 0.23437-1.3672 0.39062-0.70312 0.15625-1.4258 0.15625-0.87891 0-1.7188-0.29297-0.82031-0.29297-1.4844-0.89843-0.64453-0.60547-1.0352-1.5234-0.39063-0.9375-0.39063-2.1875 0-0.44922 0.0391-0.87891 0.0586-0.44922 0.19531-0.99609zm3.3789-0.15625q-0.15625 0.58594-0.15625 1.1328 0 0.56641 0.0977 1.0742 0.0977 0.48828 0.35156 0.85937 0.27344 0.3711 0.70313 0.60547 0.44922 0.21485 1.1523 0.21485 0.39063 0 0.83985-0.13672 0.44921-0.13672 0.8789-0.33203 0.44922-0.21485 0.82031-0.42969 0.39063-0.23438 0.66407-0.41016 0.74218-0.48828 1.3672-0.95703 0.64454-0.46875 1.1524-1.0156 0.50781-0.54688 0.8789-1.2109 0.39063-0.68359 0.625-1.5625 0.19532-0.78125 0.33204-1.4258 0.15625-0.64453 0.27343-1.25 0.11719-0.625 0.21485-1.2695 0.0976-0.64453 0.19531-1.4258-0.0977-0.11719-0.27344-0.21485-0.15625-0.11719-0.48828-0.11719-0.78125 0-1.7188 0.27344-0.9375 0.25391-1.9336 0.74219-0.97657 0.48828-1.9336 1.1914-0.9375 0.70312-1.7578 1.582-0.80078 0.85937-1.4062 1.8945-0.60547 1.0352-0.87891 2.1875z"/>
   <path d="m402.38 469.91q0.35156-0.76172 0.80078-1.0156 0.44922-0.27343 1.0352-0.27343 0.5664 0 0.95703 0.17578 0.39062 0.17578 0.625 0.46875 0.23437 0.29297 0.33203 0.68359 0.0977 0.39063 0.0977 0.83985 0 0.13671 0 0.27343 0 0.11719-0.0195 0.25391-0.0195 0.17578-0.0976 0.64453-0.0781 0.44922-0.19531 1.0742-0.0977 0.625-0.23438 1.3281-0.11719 0.6836-0.23437 1.3086-0.0977 0.625-0.19532 1.0938-0.0781 0.46875-0.11718 0.64453-0.0391 0.19531-0.0977 0.56641-0.0586 0.37109-0.11719 0.85937-0.0586 0.46875-0.0976 1.0156-0.0391 0.54687-0.0391 1.0938 0 0.52734 0.0391 1.0156 0.0391 0.46875 0.13671 0.83984 0.11719 0.35157 0.27344 0.56641 0.17578 0.21484 0.42969 0.21484 0.17578 0 0.50781-0.27343 0.35156-0.29297 0.72266-0.6836 0.39062-0.39062 0.76172-0.82031 0.37109-0.44922 0.60547-0.74219 1.2695-1.5625 2.3242-3.1641 1.0742-1.6211 1.9922-3.2617 0.35156-0.64453 0.52735-1.3086 0.19531-0.66406 0.44921-1.1914 0.25391-0.54687 0.70313-0.8789 0.46875-0.35157 1.3867-0.35157 0.48828 0 0.99609 0.33203 0.50781 0.33204 0.70313 0.95704-0.0586 0.72265-0.17578 1.4844-0.11719 0.76172-0.21485 1.5625-0.0976 0.78125-0.17578 1.5625-0.0781 0.78125-0.0781 1.5234 0 1.1523 0.23437 2.1484 0.23438 0.97656 0.85938 1.6602 0.76171-0.95703 1.5039-2.168 0.76172-1.2109 1.4844-2.5195 0.72265-1.3086 1.3672-2.6367 0.66407-1.3476 1.2305-2.5586 0.0391-0.0977 0.0391-0.17578 0.0195-0.0977 0.0195-0.19531v-0.17579q0-0.60546 0.33203-1.25 0.35156-0.64453 0.82031-1.1719t0.95703-0.85938q0.50781-0.33203 0.83985-0.33203 0.82031 0 1.2891 0.44922t0.46875 1.1914q0 0.23437-0.0977 0.58594-0.0781 0.35156-0.27344 0.70312l-6.582 11.602-0.48828 0.95703q-0.3125 0.60547-0.625 1.1719-0.29297 0.56641-0.66406 0.99609-0.35156 0.42969-0.80078 0.6836-0.42969 0.2539-0.9961 0.2539-0.76171 0-1.3672-0.42968-0.58594-0.42969-1.0156-1.0547t-0.72265-1.3477q-0.27344-0.74219-0.41016-1.3281l-0.72266-3.125q-0.0586 0-0.41015 0.41015-0.35157 0.41016-0.87891 1.0547t-1.1523 1.4258q-0.625 0.76172-1.2305 1.4844-0.58594 0.70312-1.0938 1.2891-0.48828 0.56641-0.76172 0.80078-0.27344 0.23438-0.58594 0.46875-0.29297 0.23438-0.58594 0.41016-0.29296 0.17578-0.5664 0.29297-0.25391 0.11718-0.42969 0.11718-1.2891 0-2.1484-0.60547-0.83984-0.60546-1.3476-1.582-0.48828-0.97656-0.6836-2.168-0.19531-1.2109-0.19531-2.4219 0-1.0742 0.0977-2.168 0.11718-1.0938 0.2539-2.1484 0.15625-1.0742 0.3125-2.0703 0.17578-0.99609 0.29297-1.8555 0.0195-0.15625 0.0195-0.35156 0.0195-0.21484 0.0195-0.42969v-0.50781q0-0.3125 0-0.56641 0.0195-0.27343 0.0781-0.37109z"/>
   <path d="m429.19 483.79q0.29296-1.1328 0.70312-2.6367t0.85938-3.1836q0.46875-1.6797 0.9375-3.4375 0.46875-1.7578 0.8789-3.418 0.0195-0.0781 0.13672-0.25391 0.11719-0.19531 0.33203-0.37109 0.21485-0.19532 0.54688-0.33203 0.33203-0.13672 0.78125-0.13672 0.33203 0 0.64453 0.0781 0.3125 0.0586 0.54687 0.19531 0.25391 0.13672 0.39063 0.3711 0.15625 0.21484 0.15625 0.50781 0 0.0586 0 0.13672 0 0.0586-0.0195 0.11719l-0.54691 2.0703q-0.91797 3.4766-1.875 6.9727-0.9375 3.4961-1.8359 7.0117-0.0391 0.11719-0.11718 0.29297-0.0781 0.17578-0.21485 0.35157-0.13672 0.17578-0.33203 0.29296-0.19531 0.11719-0.46875 0.11719-0.50781 0-0.89844-0.21484-0.39062-0.19531-0.66406-0.50781t-0.41015-0.6836q-0.13672-0.37109-0.13672-0.70312 0-0.0977 0-0.17578 0-0.0781 0.0391-0.17579zm5.0976-20.215q0.0977-0.41015 0.35156-0.99609 0.25391-0.58594 0.89844-1.0547 0.3125-0.17578 0.76172-0.3125 0.44922-0.15625 0.64453-0.15625t0.39063 0.13672q0.21484 0.13672 0.37109 0.29297 0.19531 0.19531 0.37109 0.42969 0.48829 0.0391 0.625 0.35156 0.15625 0.3125 0.15625 0.74219 0 0.3125-0.0586 0.5664-0.0586 0.25391-0.0977 0.41016-0.11718 0.41016-0.44921 0.76172-0.33204 0.33203-0.76172 0.58594-0.42969 0.23437-0.89844 0.37109t-0.82031 0.13672q-0.44922 0-0.70313-0.15625-0.23437-0.15625-0.60547-0.66406-0.21484-0.29297-0.2539-0.44922-0.0195-0.17578-0.0195-0.29297 0-0.21484 0.0195-0.37109 0.0391-0.17579 0.0781-0.33204z"/>
   <path d="m439.74 485.36q0.25391-1.3672 0.58594-3.0078 0.33203-1.6406 0.68359-3.3203 0.35156-1.6797 0.6836-3.3008 0.33203-1.6211 0.5664-2.9688-0.0195-0.19531-0.0195-0.33203 0-0.15625 0-0.33203 0-0.60547 0.0781-1.2109t0.21484-1.1133q0.21484-0.74219 0.46875-0.99609 0.27344-0.27344 0.85937-0.27344 0.56641 0 0.89844 0.23437 0.35156 0.21485 0.54688 0.58594 0.19531 0.3711 0.2539 0.85938 0.0586 0.46875 0.0586 0.97656 0 0.27344-0.0195 0.60547t-0.0195 0.52734q0.54688-0.5664 1.1524-1.1523 0.625-0.60547 1.3086-1.0742 0.70313-0.48828 1.4648-0.80078 0.78125-0.3125 1.6211-0.3125 0.33203 0 0.64453 0.0586 0.33203 0.0586 0.66406 0.15625 0.39063 0.0977 0.80078 0.27344 0.42969 0.15625 0.82032 0.44922 0.64453 0.48828 1.0742 1.2305 0.44921 0.72265 0.44921 1.4844 0 0.29297-0.11718 0.64453-0.11719 0.33203-0.33203 0.625-0.19532 0.27344-0.46875 0.46875-0.27344 0.17578-0.60547 0.17578t-0.82032-0.15625q-0.46875-0.17578-0.78125-0.44921-0.13671-0.11719-0.29296-0.33204-0.13672-0.21484-0.27344-0.42968-0.11719-0.21485-0.23438-0.39063-0.0976-0.19531-0.15625-0.2539-0.0976-0.0195-0.21484-0.0195-0.11719-0.0195-0.21484-0.0195-0.9961 0-1.8945 0.50782-0.89843 0.50781-1.6797 1.25-0.78125 0.72265-1.4453 1.5625-0.64453 0.82031-1.1328 1.4844-0.39062 1.582-0.8789 3.3789-0.46875 1.7773-0.9375 3.7305v0.48828q0 0.58593-0.0391 1.1914t-0.23437 1.0742q-0.21485 0.29297-0.625 0.48828-0.39063 0.21485-0.91797 0.21485-0.82031 0-1.2305-0.52735-0.41016-0.54687-0.41016-1.2695 0-0.33203 0.0977-0.68359z"/>
   <path d="m459.17 481.29q0-1.6406 0.3711-3.3984 0.37109-1.7773 0.78125-3.3984-0.50781-0.0195-1.0352-0.15625-0.52734-0.13672-0.95703-0.37109-0.42969-0.23438-0.70312-0.56641-0.27344-0.35156-0.27344-0.80078 0-0.17578 0.0781-0.44922 0.0781-0.27343 0.21485-0.52734 0.15625-0.27344 0.39062-0.44922 0.23438-0.19531 0.52735-0.19531h2.6172q0.3711 0 0.50782-0.3125 0.13671-0.33203 0.21484-0.64453 0.25391-1.1328 0.46875-1.9531 0.23437-0.83984 0.39062-1.4062 0.15625-0.58594 0.23438-0.9375 0.0977-0.37109 0.0977-0.58594 0-0.2539-0.0195-0.48828-0.0195-0.23437-0.0195-0.64453v-0.19531q0-0.15625 0.0195-0.41016 0.0391-0.2539 0.19532-0.72265 0.11718-0.3711 0.42968-0.70313t0.91797-0.33203q0.52735 0 0.89844 0.21484 0.37109 0.21485 0.60547 0.56641 0.23437 0.35156 0.35156 0.80078t0.11719 0.89844q0 0.48828-0.0977 0.87891l-1.4258 5.4688q1.0547-0.17579 1.875-0.33204t1.6406-0.3125q0.89843-0.17578 1.543-0.33203 0.66406-0.15625 1.1328-0.2539 0.46875-0.11719 0.78125-0.17578 0.33203-0.0781 0.54687-0.0781 0.3125 0 0.625 0.0586 0.33203 0.0391 0.56641 0.15625 0.25391 0.11719 0.41016 0.33204 0.15625 0.21484 0.15625 0.5664 0 0.46875-0.19532 0.83985-0.17578 0.35156-0.46875 0.625-0.29297 0.2539-0.66406 0.42968-0.37109 0.15625-0.74219 0.23438-0.3125 0.0586-0.82031 0.17578-0.48828 0.11719-1.0938 0.25391-0.58594 0.13671-1.2305 0.29296t-1.25 0.3125q-0.89844 0.23438-1.543 0.39063-0.625 0.15625-1.0742 0.23437-0.44921 0.0781-0.74218 0.11719-0.27344 0.0391-0.44922 0.0391-0.3711 1.1133-0.64453 2.1875-0.27344 1.0742-0.46875 2.0117-0.17578 0.91797-0.27344 1.6602-0.0781 0.72266-0.0781 1.1328 0 0.52735 0.0977 1.0156 0.0977 0.46875 0.33203 0.82031 0.23438 0.35156 0.625 0.56641 0.41016 0.19531 1.0156 0.19531 1.0352 0 2.0312-0.56641 0.99609-0.5664 1.8945-1.4258 0.91797-0.87891 1.7188-1.9141 0.82031-1.0352 1.5039-1.9727 0.23438-0.35156 0.60547-0.35156 0.11719 0 0.27344 0.0391 0.17578 0.0391 0.33203 0.13672 0.15625 0.0977 0.25391 0.25391 0.11719 0.15625 0.11719 0.37109 0 0.15625-0.0195 0.23438-0.3125 1.2109-0.97656 2.4414-0.64453 1.2109-1.3281 2.4414-0.23438 0.42969-0.625 0.83984-0.3711 0.41016-0.82032 0.80078-0.44921 0.3711-0.9375 0.72266-0.48828 0.33203-0.91796 0.60547-0.74219 0.46875-1.6211 0.64453-0.8789 0.17578-1.6992 0.17578-1.2695 0-2.2656-0.44922-0.97656-0.46875-1.6602-1.25-0.66406-0.80078-1.0156-1.8555-0.35157-1.0547-0.35157-2.2656z"/>
   <path d="m477.96 483.91q0.15625 0 0.27343 0.0391 0.13672 0.0391 0.29297 0.0976 0.15625 0.0391 0.35157 0.0781 0.19531 0.0391 0.50781 0.0391 0.91797 0 2.0312-0.19531 1.1328-0.19531 2.1289-0.50781 0.9961-0.3125 1.6992-0.70313 0.72266-0.41015 0.82032-0.83984 0.0586-0.23438 0.0586-0.41016 0-0.33203-0.33203-0.625-0.3125-0.3125-0.80078-0.58594-0.48828-0.27343-1.0547-0.50781-0.56641-0.23437-1.0547-0.42969l-0.66406-0.27343q-0.50781-0.19532-0.99609-0.46875-0.48829-0.29297-0.91797-0.66407-0.41016-0.37109-0.74219-0.85937-0.3125-0.50781-0.46875-1.1523-0.0781-0.27344-0.13672-0.54688-0.0391-0.27344-0.0391-0.58594 0-0.50781 0.33203-1.1523 0.35156-0.66406 0.91797-1.3086 0.58594-0.64454 1.3086-1.2305 0.74219-0.58594 1.543-0.97657 0.58594-0.41015 1.1328-0.74218 0.54688-0.33203 1.0938-0.56641 0.56641-0.23437 1.1328-0.37109 0.58593-0.13672 1.2305-0.13672 0.58594 0 1.2695 0.0586 0.68359 0.0586 1.25 0.27344 0.5664 0.21484 0.9375 0.64453 0.39062 0.41016 0.39062 1.1133 0 0.21485-0.0586 0.56641t-0.19532 0.70312q-0.13671 0.35157-0.33203 0.60547-0.19531 0.25391-0.46875 0.25391-0.44922 0-0.74218-0.17578-0.29297-0.17578-0.52735-0.3711-0.23437-0.21484-0.48828-0.39062t-0.625-0.17578q-0.44922 0-1.0547 0.17578-0.58593 0.15625-1.2109 0.44922-0.625 0.27343-1.2305 0.64453-0.58594 0.37109-1.0742 0.76172-0.46875 0.39062-0.76172 0.78125-0.29297 0.37109-0.29297 0.68359 0 0.33203 0.21484 0.54688 0.21485 0.21484 0.54688 0.37109 0.42969 0.23437 0.97656 0.46875 0.56641 0.23437 1.1328 0.46875 0.56641 0.23437 1.0938 0.46875 0.54688 0.23437 0.9375 0.42969 0.52735 0.27343 0.9375 0.54687 0.42969 0.25391 0.72266 0.56641t0.44922 0.70312q0.15625 0.39063 0.15625 0.91797 0 0.25391-0.0391 0.50781-0.0391 0.25391-0.11719 0.58594-0.0586 0.29297-0.21484 0.6836-0.13672 0.39062-0.3125 0.78125-0.15625 0.37109-0.33204 0.68359-0.17578 0.29297-0.29296 0.39062-0.76172 0.70313-1.7969 1.3281-1.0352 0.60547-2.168 1.0742-1.1133 0.44922-2.2461 0.72265-1.1133 0.27344-2.0508 0.27344-0.46875 0-1.0352-0.17578-0.56641-0.19531-1.0547-0.48828-0.46875-0.3125-0.80078-0.70313-0.3125-0.39062-0.3125-0.78125 0-0.19531 0.11719-0.42968 0.11719-0.25391 0.29297-0.44922 0.17578-0.21485 0.37109-0.35156 0.21485-0.15625 0.39063-0.15625z"/>
   <path d="m494.09 479.73q0.37109-1.5039 1.0938-3.1445 0.74219-1.6406 1.7773-3.1641 1.0352-1.543 2.3438-2.832 1.3281-1.3086 2.8906-2.1289 0.50781-0.27344 1.1133-0.41016t1.2305-0.13672q0.64453 0 1.1914 0.11719 0.56641 0.11719 0.95704 0.39062 0.41015 0.27344 0.64453 0.70313 0.23437 0.42969 0.23437 1.0547 0 0.46875-0.13672 0.95703-0.13672 0.46875-0.41015 0.85937-0.27344 0.3711-0.6836 0.60547-0.41015 0.23438-0.95703 0.23438-0.42969 0-0.80078-0.15625-0.35156-0.15625-0.68359-0.35157-0.17578-0.11718-0.33203-0.19531-0.15625-0.0976-0.3711-0.17578-0.78125 0.35156-1.4844 0.9375-0.6836 0.56641-1.2891 1.2695-0.58593 0.70313-1.0938 1.5039-0.48828 0.80078-0.89843 1.6016-0.39063 0.80078-0.6836 1.582-0.27343 0.76172-0.44922 1.4062-0.13671 0.46875-0.2539 1.0742-0.0977 0.58594-0.0977 1.1523 0 0.39063 0.0586 0.74219 0.0781 0.35156 0.2539 0.625 0.17578 0.27344 0.46875 0.42969t0.72266 0.15625q0.68359 0 1.3476-0.17578 0.6836-0.17578 1.3281-0.44922t1.25-0.625q0.625-0.37109 1.2109-0.74219 0.37109-0.23437 0.74218-0.48828 0.3711-0.25391 0.70313-0.44922t0.60547-0.3125q0.29297-0.13672 0.50781-0.13672 0.29297 0 0.54688 0.15625 0.2539 0.13672 0.2539 0.48828 0 0.25391-0.11719 0.56641-0.27343 0.76172-0.74218 1.3672t-1.0547 1.0938q-0.56641 0.46875-1.2305 0.83984-0.64453 0.3711-1.2891 0.6836-1.2109 0.64453-2.4609 0.97656-1.2305 0.3125-2.0703 0.3125-0.27344 0-0.64453-0.0586-0.3711-0.0586-0.64453-0.17578-1.582-0.68359-2.3047-1.8359-0.72266-1.1524-0.72266-2.7344 0-0.68359 0.0977-1.4258 0.11719-0.76172 0.33203-1.582z"/>
   <path d="m524.5 488.48q-1.2109 0-1.6602-0.52735-0.44922-0.52734-0.44922-1.4453 0-0.48828 0.0977-1.0547 0.0976-0.5664 0.2539-1.1719 0.27344-1.0352 0.60547-2.0508 0.35156-1.0352 0.6836-2.0703 0.35156-1.0547 0.66406-2.0898 0.33203-1.0547 0.58594-2.1094 0.0195-0.0977 0.0195-0.25391 0-0.27344-0.13672-0.42969t-0.41016-0.15625q-0.42969 0-0.9375 0.17578-0.48828 0.17579-0.82031 0.39063-1.3086 0.87891-2.3047 1.7383-0.97656 0.85938-1.7969 1.7969-0.82032 0.9375-1.5625 2.0117-0.72266 1.0547-1.5234 2.3242-0.68359 1.2695-1.0156 2.168-0.33203 0.87891-0.625 1.4258-0.27343 0.54688-0.625 0.78125-0.35156 0.25391-1.0547 0.25391-0.78125 0-1.1133-0.44922-0.3125-0.44922-0.3125-1.1719 0-0.56641 0.17578-1.2695l6.4453-25.82q0.0586-0.23437 0.19531-0.50781 0.13672-0.27344 0.3711-0.50781 0.23437-0.23438 0.54687-0.39063 0.33203-0.15625 0.74219-0.15625 0.3125 0 0.66406 0.0391 0.35156 0.0195 0.625 0.11719 0.29297 0.0781 0.46875 0.27344 0.19531 0.19531 0.19531 0.50781 0 0.0781-0.0391 0.33203-0.0391 0.23438-0.11719 0.54688-1.0547 4.2383-2.2656 8.8281-1.1914 4.5898-2.4219 9.2774 1.1914-1.4648 2.4805-2.6758 1.2891-1.2305 2.6367-2.1094 1.3672-0.87891 2.8125-1.3672 1.4648-0.50781 3.0273-0.50781 0.9961 0 1.543 0.64453 0.54688 0.625 0.54688 1.6016 0 0.44922-0.11719 0.87891-0.23437 0.89844-0.52734 1.7773-0.29297 0.85938-0.60547 1.7383-0.3125 0.8789-0.625 1.7969-0.3125 0.89844-0.54688 1.8555-0.3125 1.2305-0.42968 2.3438-0.11719 1.0938-0.15625 1.7578-0.0391 0.56641-0.17579 1.0938-0.13671 0.52735-0.41015 0.91797-0.25391 0.41016-0.66406 0.64453-0.39063 0.25391-0.9375 0.25391z"/>
   <path d="m542.51 486.53q0-0.5664 0.13672-1.3476 0.13672-0.80078 0.13672-1.9727-0.64454 0.46875-1.4258 1.1133t-1.6211 1.2305-1.6797 0.99609q-0.82031 0.39063-1.543 0.39063-0.58593 0-1.1133-0.17578-0.52734-0.17578-0.89843-0.46875-1.0352-0.82031-1.5039-1.6406-0.44922-0.82031-0.44922-1.9141 0-0.48828 0.0781-1.0156 0.0976-0.52735 0.27343-1.2109 0.74219-3.0859 2.5391-5.7031 1.8164-2.6367 4.4922-4.4922 1.0352-0.72266 2.0703-0.91797 1.0352-0.21485 2.0508-0.21485 0.44922 0 0.99609 0.0586 0.56641 0.0586 1.0156 0.11718 0.44921-0.0976 0.72265-0.13671 0.29297-0.0391 0.60547-0.0391 0.58594 0 0.97656 0.15625 0.39063 0.15625 0.625 0.42969 0.23438 0.25391 0.33203 0.60547 0.11719 0.33203 0.11719 0.70312 0 0.50782-0.15625 0.97657-0.15625 0.44922-0.3125 0.91797l-2.5781 10.293q-0.0781 0.83985-0.13672 1.543-0.0586 0.70313-0.23438 1.3086-0.0586 0.17578-0.15625 0.44922-0.0781 0.2539-0.27343 0.50781-0.19532 0.23437-0.48829 0.41015-0.29296 0.17579-0.76171 0.17579-0.60547 0-0.97657-0.0781-0.35156-0.0781-0.54687-0.21484-0.19531-0.15625-0.25391-0.35157-0.0586-0.21484-0.0586-0.48828zm-6.4844-5.8984q-0.0781 0.27343-0.17578 0.78125-0.0781 0.50781-0.0781 1.0156 0 0.52734 0.15625 0.95703 0.15625 0.41016 0.68359 0.41016 0.82031 0 1.5234-0.35156 0.72265-0.3711 1.3476-0.87891 0.83985-0.68359 1.6992-1.5234 0.87891-0.85937 1.6406-1.7969 0.78125-0.9375 1.3672-1.9141 0.60546-0.99609 0.8789-1.9726 0.15625-0.56641 0.25391-1.3086 0.11719-0.74218 0.11719-1.3281 0-0.25391-0.11719-0.48828-0.11719-0.25391-0.44922-0.25391-0.95703 0-1.9336 0.3711-0.95704 0.37109-1.8555 0.99609-0.89844 0.625-1.7188 1.4844-0.80078 0.83985-1.4648 1.8164-0.66406 0.95703-1.1523 1.9922-0.46875 1.0156-0.72266 1.9922z"/>
   <path d="m556.09 489.16q-0.48828 0-0.87891-0.19531-0.37109-0.17578-0.64453-0.50781-0.25391-0.3125-0.41016-0.72266-0.13672-0.41016-0.13672-0.87891 0-0.33203 0.0781-0.72265 0.0781-0.41016 0.23437-0.97656 0.0586-0.25391 0.17579-0.76172 0.11718-0.50782 0.23437-1.1524t0.23438-1.3672q0.13671-0.72266 0.23437-1.4062 0.11719-0.6836 0.17578-1.2695 0.0586-0.58593 0.0586-0.97656 0-0.2539-0.0195-0.33203-0.0391-0.29297-0.42968-0.39062-0.3711-0.11719-0.82032-0.23438-0.42968-0.13672-0.80078-0.41016-0.35156-0.29296-0.35156-0.9375 0-0.52734 0.23438-0.99609 0.2539-0.46875 0.64453-0.66406 0.44922-0.21485 0.99609-0.23438 0.56641-0.0195 1.1133-0.11718 0.3125-0.0391 0.42969-0.3711 0.13672-0.33203 0.21484-0.64453 0.23438-0.89844 0.50782-1.9336 0.27343-1.0547 0.625-2.1289 0.37109-1.0938 0.80078-2.1289 0.44922-1.0352 0.99609-1.9141 0.87891-1.1914 1.875-2.2266 1.0156-1.0352 2.1484-1.7969 1.1523-0.78125 2.4219-1.2109 1.2891-0.44922 2.7344-0.44922 1.7383 0 2.832 0.58594 1.0938 0.58593 1.7773 1.7578 0.15625 0.27344 0.21485 0.5664 0.0586 0.27344 0.0586 0.56641 0 0.52734-0.15625 0.99609-0.13672 0.44922-0.39062 0.80079-0.25391 0.33203-0.60547 0.52734-0.33203 0.19531-0.70313 0.19531-0.52734 0-0.82031-0.21484-0.29297-0.21485-0.48828-0.52735-0.17578-0.3125-0.29297-0.68359-0.0977-0.39062-0.23438-0.70312-0.11718-0.3125-0.33203-0.52735-0.21484-0.21484-0.60547-0.21484-0.39062 0-0.89843 0.0976-0.48828 0.0977-0.9375 0.33204-1.1914 0.625-2.207 1.4062-1.0156 0.76171-1.8945 1.9531-0.85937 1.1914-1.6016 2.9102-0.72265 1.7188-1.3476 4.2383-0.0195 0.0391-0.0391 0.0976-0.0195 0.0586-0.0195 0.0781 0 0.0391 0.15625 0.0391 0.58594 0 1.1133-0.0586 0.54688-0.0781 1.0742-0.15625 0.52735-0.0977 1.0547-0.15625 0.54687-0.0781 1.1523-0.0781 0.44922 0 0.83985 0.0391 0.39062 0.0391 0.66406 0.17578 0.29297 0.11718 0.44922 0.35156 0.17578 0.23437 0.17578 0.625 0 0.23437-0.0781 0.58594-0.0586 0.33203-0.21484 0.66406-0.13672 0.3125-0.37109 0.56641-0.21485 0.2539-0.54688 0.3125-0.58594 0.11718-1.2109 0.19531-0.625 0.0586-1.3672 0.15625-0.74219 0.0781-1.6406 0.2539-0.89844 0.15625-2.0117 0.46875-0.35156 1.3281-0.54687 2.6367-0.17578 1.2891-0.3125 2.5781t-0.3125 2.5976q-0.15625 1.2891-0.46875 2.5977-0.0586 0.25391-0.21485 0.50781-0.13671 0.25391-0.35156 0.44922-0.19531 0.21485-0.46875 0.33203-0.2539 0.13672-0.54687 0.13672z"/>
   <path d="m571.05 481.29q0-1.6406 0.3711-3.3984 0.37109-1.7773 0.78125-3.3984-0.50781-0.0195-1.0352-0.15625-0.52734-0.13672-0.95703-0.37109-0.42969-0.23438-0.70312-0.56641-0.27344-0.35156-0.27344-0.80078 0-0.17578 0.0781-0.44922 0.0781-0.27343 0.21485-0.52734 0.15625-0.27344 0.39062-0.44922 0.23438-0.19531 0.52735-0.19531h2.6172q0.3711 0 0.50782-0.3125 0.13671-0.33203 0.21484-0.64453 0.25391-1.1328 0.46875-1.9531 0.23437-0.83984 0.39062-1.4062 0.15625-0.58594 0.23438-0.9375 0.0977-0.37109 0.0977-0.58594 0-0.2539-0.0195-0.48828-0.0195-0.23437-0.0195-0.64453v-0.19531q0-0.15625 0.0195-0.41016 0.0391-0.2539 0.19532-0.72265 0.11718-0.3711 0.42968-0.70313t0.91797-0.33203q0.52735 0 0.89844 0.21484 0.37109 0.21485 0.60547 0.56641 0.23437 0.35156 0.35156 0.80078t0.11719 0.89844q0 0.48828-0.0977 0.87891l-1.4258 5.4688q1.0547-0.17579 1.875-0.33204t1.6406-0.3125q0.89843-0.17578 1.543-0.33203 0.66406-0.15625 1.1328-0.2539 0.46875-0.11719 0.78125-0.17578 0.33203-0.0781 0.54687-0.0781 0.3125 0 0.625 0.0586 0.33203 0.0391 0.56641 0.15625 0.25391 0.11719 0.41016 0.33204 0.15625 0.21484 0.15625 0.5664 0 0.46875-0.19532 0.83985-0.17578 0.35156-0.46875 0.625-0.29297 0.2539-0.66406 0.42968-0.37109 0.15625-0.74219 0.23438-0.3125 0.0586-0.82031 0.17578-0.48828 0.11719-1.0938 0.25391-0.58594 0.13671-1.2305 0.29296t-1.25 0.3125q-0.89844 0.23438-1.543 0.39063-0.625 0.15625-1.0742 0.23437-0.44921 0.0781-0.74218 0.11719-0.27344 0.0391-0.44922 0.0391-0.3711 1.1133-0.64453 2.1875-0.27344 1.0742-0.46875 2.0117-0.17578 0.91797-0.27344 1.6602-0.0781 0.72266-0.0781 1.1328 0 0.52735 0.0977 1.0156 0.0977 0.46875 0.33203 0.82031 0.23438 0.35156 0.625 0.56641 0.41016 0.19531 1.0156 0.19531 1.0352 0 2.0312-0.56641 0.99609-0.5664 1.8945-1.4258 0.91797-0.87891 1.7188-1.9141 0.82031-1.0352 1.5039-1.9727 0.23438-0.35156 0.60547-0.35156 0.11719 0 0.27344 0.0391 0.17578 0.0391 0.33203 0.13672 0.15625 0.0977 0.25391 0.25391 0.11719 0.15625 0.11719 0.37109 0 0.15625-0.0195 0.23438-0.3125 1.2109-0.97656 2.4414-0.64453 1.2109-1.3281 2.4414-0.23438 0.42969-0.625 0.83984-0.3711 0.41016-0.82032 0.80078-0.44921 0.3711-0.9375 0.72266-0.48828 0.33203-0.91796 0.60547-0.74219 0.46875-1.6211 0.64453-0.8789 0.17578-1.6992 0.17578-1.2695 0-2.2656-0.44922-0.97656-0.46875-1.6602-1.25-0.66406-0.80078-1.0156-1.8555-0.35157-1.0547-0.35157-2.2656z"/>
  </g>
  <g id="wahlbacherhof" transform="matrix(.47703 0 0 .47368 -33.06 -131)" style="shape-inside:url(#rect7556);white-space:pre" aria-label="WAHLBACHERHOF">
   <path d="m84.375 276.85h2.7344l5.8203 22.266 5.0195-22.266h4.1406l-6.9336 28.398h-4.0625l-5.2344-19.844-5.4688 19.844h-4.0625l-6.9336-28.398h4.1406l5.0195 22.266z"/>
   <path d="m112.17 276.85h3.3984l10.469 28.398h-4.2969l-7.8711-22.91-7.8711 22.91h-4.2969zm-5.6445 18.379h14.941v3.7891h-14.941z"/>
   <path d="m146.46 276.85h3.9844v28.398h-3.9844zm-16.133 0h3.9844v28.398h-3.9844zm2.4805 12.52h15.762v3.7891h-15.762z"/>
   <path d="m157.48 276.85h3.9844v28.398h-3.9844zm1.9922 24.609h16.25v3.7891h-16.25z"/>
   <path d="m182.75 301.55h7.6953q3.0273 0 4.4141-1.1523t1.3867-3.2422v-0.0586q0-1.4453-0.50781-2.4805-0.48828-1.0352-1.5625-1.582-1.0742-0.56641-2.7539-0.56641h-8.6719v-3.5938h8.6719q2.207 0 3.3203-1.0352 1.1328-1.0352 1.1328-3.0664 0-2.1289-1.25-3.1836-1.25-1.0547-3.75-1.0547h-8.125v-3.6914h8.8476q2.7539 0 4.6094 0.9375t2.7734 2.6562q0.91797 1.7188 0.91797 4.1016 0 1.4648-0.5664 2.7539-0.56641 1.2695-1.7383 2.1875-1.1524 0.89844-2.8711 1.2109 1.7188 0.25391 2.9688 1.2305 1.25 0.95703 1.9141 2.4023 0.66407 1.4453 0.66407 3.125v0.0586q0 2.3047-1.0156 4.0625-1.0156 1.7578-2.9102 2.7148-1.8945 0.95703-4.4141 0.95703h-9.1797zm-2.3438-24.707h3.9648v28.398h-3.9648z"/>
   <path d="m213.38 276.85h3.3984l10.469 28.398h-4.2969l-7.8711-22.91-7.8711 22.91h-4.2969zm-5.6445 18.379h14.941v3.7891h-14.941z"/>
   <path d="m239.28 305.54q-2.9492 0-5.1953-1.3086-2.2266-1.3086-3.457-3.7109-1.2305-2.4024-1.2305-5.5664v-7.793q0-3.1641 1.2305-5.5664 1.2305-2.4024 3.457-3.7109 2.2461-1.3281 5.1953-1.3281 2.4414 0 4.4922 1.0547 2.0508 1.0352 3.418 2.9492 1.3867 1.9141 1.875 4.4336h-4.082q-0.3711-1.3281-1.25-2.3633-0.85938-1.0547-2.0312-1.6211-1.1719-0.56641-2.4219-0.56641-1.7383 0-3.0469 0.83985-1.3086 0.83984-2.0312 2.3633-0.72266 1.5039-0.72266 3.5156v7.793q0 1.9922 0.72266 3.5156 0.72265 1.5234 2.0312 2.3633 1.3086 0.82031 3.0469 0.82031 1.2695 0 2.4219-0.52734 1.1719-0.52735 2.0312-1.5625 0.8789-1.0352 1.25-2.4609h4.082q-0.48828 2.5195-1.875 4.4336-1.3867 1.9141-3.4375 2.9688-2.0508 1.0352-4.4727 1.0352z"/>
   <path d="m270.47 276.85h3.9844v28.398h-3.9844zm-16.133 0h3.9844v28.398h-3.9844zm2.4805 12.52h15.762v3.7891h-15.762z"/>
   <path d="m281.48 276.85h3.9844v28.398h-3.9844zm1.9336 24.609h16.309v3.7891h-16.309zm0-12.207h14.16v3.7891h-14.16zm0-12.402h16.309v3.7891h-16.309z"/>
   <path d="m307.13 289.44h9.6875q1.1328 0 2.0117-0.54688 0.87891-0.54687 1.3477-1.543 0.48828-1.0156 0.48828-2.3242 0-1.3086-0.48828-2.3047-0.46875-1.0156-1.3477-1.5625-0.85937-0.54688-2.0117-0.54688h-9.6875v-3.7891h9.5312q2.4609 0 4.3164 1.0156 1.875 1.0156 2.8906 2.8906 1.0352 1.8555 1.0352 4.2969 0 2.4414-1.0352 4.3164-1.0352 1.8555-2.9102 2.8711-1.8555 1.0156-4.2969 1.0156h-9.5312zm-1.7383-12.617h3.9844v28.418h-3.9844zm9.4727 15.527 3.9648-0.89844 7.2656 13.789h-4.7266z"/>
   <path d="m347.6 276.85h3.9844v28.398h-3.9844zm-16.133 0h3.9844v28.398h-3.9844zm2.4805 12.52h15.762v3.7891h-15.762z"/>
   <path d="m368.01 305.54q-2.9688 0-5.2344-1.2891-2.2656-1.3086-3.5156-3.6719-1.2305-2.3828-1.2305-5.5078v-8.0469q0-3.125 1.2305-5.4883 1.25-2.3828 3.5156-3.6719 2.2656-1.3086 5.2344-1.3086t5.2344 1.3086q2.2656 1.2891 3.4961 3.6719 1.25 2.3633 1.25 5.4883v8.0469q0 3.125-1.25 5.5078-1.2305 2.3633-3.4961 3.6719-2.2656 1.2891-5.2344 1.2891zm0-3.9258q1.7578 0 3.0859-0.78125 1.3477-0.80078 2.0703-2.2461 0.74219-1.4648 0.74219-3.3789v-8.3203q0-1.9141-0.74219-3.3594-0.72265-1.4648-2.0703-2.2461-1.3281-0.80078-3.0859-0.80078t-3.1055 0.80078q-1.3281 0.78125-2.0703 2.2461-0.72266 1.4453-0.72266 3.3594v8.3203q0 1.9141 0.72266 3.3789 0.74219 1.4453 2.0703 2.2461 1.3477 0.78125 3.1055 0.78125z"/>
   <path d="m384.04 276.85h3.9844v28.398h-3.9844zm1.9531 12.656h13.77v3.7891h-13.77zm0-12.656h15.918v3.7891h-15.918z"/>
  </g>
  <path id="line" d="m0.38965 14.734h158.03c0.17581 0 0.31734 0.07211 0.31734 0.16169v0.48506c0 0.08957-0.14153 0.16169-0.31734 0.16169h-158.03c-0.1758 0-0.31733-0.07211-0.31733-0.16169v-0.48506c0-0.08957 0.14153-0.16169 0.31733-0.16169z" stroke-width=".22651"/>
 </g>
</svg>
